<svg version="1.2" xmlns="http://www.w3.org/2000/svg" viewBox="0 0 956 279" width="956" height="279">
	<title>drip-1-svg</title>
	<style>
		.s0 { fill: #7D411DFF }
	</style>
	<path class="s0" d="m917.4 283.3h37.9v-117.6c-3-2.5-6.7-4.4-10.3-6.2-43.3-21.8-31.9-65.8-25.6-103 2.3-13.5 6.4-26.8 1.1-40.1-5.9-14.7-30.1-11.9-35.6 1.5-3.3 7.9-2.4 16.8-1.5 25.3 0 0 7 45 7 45.1 2.9 26.4-5.2 53.3-16.7 76.9-9.2 19-27.3 31.4-49.3 29-14.8-1.6-27.7-9.3-40.1-17-6.4-4-12.8-8-19.5-11.4-5.5-2.8-11.7-4.9-13.9-11.2-2.4-6.9 0.9-13.9 2.3-20.6 2.5-11.9 7-24.6-0.6-35.4-3.8-5.6-10.5-9.1-17.5-8.3-12.8 1.5-18.9 15.2-17.3 26.3 1.5 10 8.3 21.2 7.6 31.2-1 15.2-11 25.4-22.7 35.9-9.3 8.5-25.5 17.9-38.3 15.6-15.8-2.9-23.8-22.1-39.6-24.6-18.8-3.1-32.5 18.8-51.5 21.1-19.3 2.3-33.7-15.6-51.3-23.4-15.6-7-35.2-5.6-49.5 3.7-13.7 8.9-24.8 24.9-41.4 23.9-18.1-1.1-27.4-22-44.3-28.3-34.2-12.7-67 40.3-101.5 28.3-20.7-7.2-22.2-33.5-17.2-53.7 5-20.3 16-39.9 13.8-60.6-1.4-12.6-11.9-27.5-25.9-27-17.4 0.7-24.7 20.7-24.1 35.3 0.8 23.4 8.6 43.9 12.4 67 0.8 4.8-0.3 12.1-3.5 16.1-2.7 3.5-7.2 5.8-11.7 6-12.1 0.7-13.6-14.4-10.5-24.5 4-13 9.9-26.1 4.6-39.9-2.4-6.2-7.8-11.2-14.7-12.6-15.4-3.1-25.3 13.4-24.6 27.1 0.7 13.7 8 26.5 8.2 40.4 0 2.4-0.4 4.8-1.6 6.9-5.5 9.9-19.7 6.1-26.2-0.6-4-4.2-4.5-10.1-8.5-14.4-4.7-5.2-11.7-8.5-18.7-8.5-16.5-0.1-21.3 14.5-31 24.6-9.9 10.3-24.5 19.3-39.2 14.1-17.3-6.1-21.5-26.6-26.8-43.2-5.3-16.6-21.8-35.2-38.5-27.8-3 1.3-5.4 3.3-7.3 5.6v153c0.3 0 923.1 0 923.1 0z"/>
</svg>