<svg version="1.2" xmlns="http://www.w3.org/2000/svg" viewBox="0 0 647 662" width="647" height="662">
	<title>2071331-svg</title>
	<style>
		.s0 { fill: #5F3624 }
	</style>
	<g>
		<path fill-rule="evenodd" class="s0" d="m366.5 5.4c73.8 9.9 138.6 42.5 189.5 95.2 52.5 54.4 82.7 123.6 88.1 201.7 2.1 29.4-1.7 67.5-9.6 98.2-8.3 32-23.8 68.8-40.1 95.2-50 80.9-131.2 133.6-226.6 146.8-16.1 2.3-49.5 3-65.9 1.6-41.5-3.8-80.5-14.8-117.1-33.2-4.3-2.2-8.6-3.9-9.5-3.9-1 0-18 5.2-37.8 11.5-37.8 12.2-127.3 40.7-131.4 42-2.3 0.7-2.4 0.5-1.8-2.7 0.5-3.1 0.2-3.5-2.4-4.5-1.6-0.6-2.9-1.9-2.9-2.8 0-1 6.8-22 15.2-46.9 8.3-24.8 20.6-61.6 27.4-81.8l12.3-36.7-5.3-10.3c-18.5-36.6-32.2-81.4-36.2-118.8-3-27.8-2.1-64 2.2-88 5.7-32 14-58 27.3-85.6 24.3-50.4 61.8-93.6 109.1-125.6 44.8-30.3 101.5-49.7 155.5-53.2 11.8-0.8 49.2 0.4 60 1.8zm-182.5 109.4c-37.5 25-68 59.1-88 98.2-7.3 14.5-11 23.8-15.5 39-20.3 70.1-6.7 152.8 35.1 212.7 2.6 3.7 4.4 7.4 4.4 9 0 1.6-6.5 22.1-14.4 45.8-7.9 23.6-14.3 43.1-14.1 43.3 0.1 0.2 20.7-6.3 45.7-14.3 25-8 46.3-14.5 47.2-14.5 1 0 3.2 1.1 4.9 2.4 5.5 4 23.2 13.6 33.9 18.3 38.8 17 78.5 24 121.2 21.4 121.1-7.6 220.9-100.8 237.2-221.7 2.3-17.2 2.3-51.2 0-68-4.8-35.4-17.1-67.8-37.1-97.9-26-39.2-61.1-70-103-90.6-30.9-15.1-60.2-23-95.9-25.9-55.2-4.4-114.3 11.2-161.6 42.8z"/>
		<path class="s0" d="m213.3 164.4c-2.3 0.7-5.6 2.3-7.5 3.4-5.1 3.2-19.9 19-24.5 26.2-14.7 22.9-18 53.4-9.2 83.2 6.7 22.5 14.9 39.7 29.9 62.9 19 29.2 31.3 45 51 65.3 29.6 30.5 54.5 47.6 92.7 63.5 28.2 11.8 49 18.5 60.7 19.7 8.1 0.8 25.8-2 36.2-5.8 14.4-5.2 30.9-16.8 37.3-26.2 6.4-9.6 13-31.3 13.8-45.7l0.6-9.5-3.1-3.6c-2.2-2.4-11.2-7.8-29.4-17.6-43.2-23.2-48.7-25.4-55.5-21.8-1.7 0.8-8.1 7.3-14.1 14.3-17.8 20.7-21.5 24.3-24.5 24.3-3.8 0-28.7-12.7-40.3-20.5-13.5-9.2-22.3-16.6-33.4-28.1-13.2-13.7-27.5-33.3-35.5-48.6l-1.8-3.6 7.2-7.9c9.5-10.1 13.4-16.2 17.2-26.8 3.9-10.8 3.7-14.1-2-29-5.1-13.3-9.2-24.3-16.3-43.4-5.8-15.7-10.1-22.1-16.1-24-5.7-1.7-28.7-2.2-33.4-0.7z"/>
	</g>
</svg>